:SAMPLES-PER-SECOND 30
:FULLY-SPECIFIED
:DEGREES
200
root  -6.52577 37.4919 12.0281 -177.878 64.2542 -177.579
RightUpLeg  -25.7694 -3.17445 -6.6363
RightLeg  23.9159 -2.55935 -1.46075
RightFoot  3.43843 -1.8749 14.4331
RightToes  -1.39699e-009 0 -3.6325e-017
Spine  14.8178 -1.49453 -12.9083
Spine1  24.8526 -4.60508 1.98482
HEad  -14.9876 26.2501 -6.90536
LeftShoulder1  1.83378 -4.94371 -14.8578
LeftArm  -5.19872 -20.86 -61.7578
LeftForeArm  -10.1791 -73.5213 -47.262
LeftHand  -0.601823 2.53793 24.2854
RightShoulder  0.598807 -0.293968 11.6001
RightArm  2.83489 -8.42945 61.2144
RightForeArm  137.694 71.8943 145.625
RightHand  -0.949613 3.35009 -12.8135
LeftUpLeg  -6.87026 -0.148069 7.67239
LeftLeg  34.4726 4.49896 3.68523
LeftFoot  -25.2054 -1.54112 -13.8603
LeftToes  3.40148e-010 1.80944e-010 1.01921e-010
201
root  -6.54276 37.465 12.0308 -177.557 64.6361 -176.983
RightUpLeg  -25.6712 -2.82999 -6.35578
RightLeg  23.9667 -2.52862 -1.44866
RightFoot  3.43417 -1.87763 14.4858
RightToes  -1.39699e-009 0 -3.6325e-017
Spine  15.1401 -1.51117 -12.8173
Spine1  24.7273 -4.60954 1.87902
HEad  -14.8858 25.6407 -6.37394
LeftShoulder1  1.85065 -4.97085 -15.0009
LeftArm  -5.52859 -20.7685 -61.4807
LeftForeArm  -10.0488 -73.5332 -47.2985
LeftHand  -0.647095 2.37457 24.7024
RightShoulder  0.595632 -0.329911 11.7252
RightArm  2.99954 -8.29454 61.2187
RightForeArm  137.594 71.9333 145.533
RightHand  -0.94169 3.33436 -12.7311
LeftUpLeg  -6.72868 0.0633951 7.94024
LeftLeg  34.8266 4.53414 3.75595
LeftFoot  -25.3779 -1.57202 -13.9459
LeftToes  3.40148e-010 1.80944e-010 1.01921e-010
202
root  -6.56068 37.434 12.0279 -177.445 65.0899 -176.772
RightUpLeg  -25.7878 -2.52934 -6.24955
RightLeg  24.114 -2.39979 -1.39389
RightFoot  3.36711 -1.88557 14.6245
RightToes  -1.39699e-009 0 -3.6325e-017
Spine  15.2159 -1.48537 -12.9802
Spine1  24.7305 -4.64615 1.94077
HEad  -14.9527 25.3177 -6.12564
LeftShoulder1  1.87246 -5.03552 -15.0999
LeftArm  -5.89377 -20.6062 -61.3337
LeftForeArm  -9.69428 -73.6014 -47.5574
LeftHand  -0.681705 2.26964 25.1535
RightShoulder  0.58825 -0.344 11.5584
RightArm  3.01945 -8.1917 61.5109
RightForeArm  137.794 72.0202 145.393
RightHand  -0.921667 3.42217 -12.3497
LeftUpLeg  -6.70262 0.284841 7.98901
LeftLeg  35.1542 4.6596 3.8921
LeftFoot  -25.5159 -1.59968 -14.0362
LeftToes  3.40148e-010 1.80944e-010 1.01921e-010
203
root  -6.57888 37.4022 12.0225 -177.538 65.5713 -176.934
RightUpLeg  -26.0939 -2.32098 -6.29923
RightLeg  24.3366 -2.16339 -1.28928
RightFoot  3.26624 -1.89381 14.7708
RightToes  -1.39699e-009 0 -3.6325e-017
Spine  15.049 -1.46847 -13.285
Spine1  24.8842 -4.69289 2.0257
HEad  -15.3063 25.518 -6.24609
LeftShoulder1  1.8619 -5.01152 -15.0314
LeftArm  -6.1451 -20.4736 -61.4333
LeftForeArm  -9.51231 -73.675 -47.8666
LeftHand  -0.670321 2.33881 25.2859
RightShoulder  0.582276 -0.339612 11.317
RightArm  3.04486 -8.13727 61.8429
RightForeArm  138.136 72.0543 145.378
RightHand  -0.921912 3.53496 -12.2035
LeftUpLeg  -6.77819 0.423814 7.82173
LeftLeg  35.4177 4.91006 4.11645
LeftFoot  -25.6196 -1.62715 -14.1555
LeftToes  3.40148e-010 1.80944e-010 1.01921e-010
204
root  -6.59359 37.3798 12.0191 -177.554 65.9887 -176.915
RightUpLeg  -26.2338 -2.14183 -6.26434
RightLeg  24.4557 -1.95161 -1.19003
RightFoot  3.22291 -1.89557 14.8166
RightToes  -1.39699e-009 0 -3.6325e-017
Spine  14.9819 -1.49696 -13.3538
Spine1  25.048 -4.68196 1.90751
HEad  -16.0399 26.4816 -6.7766
LeftShoulder1  1.82531 -4.92187 -14.8106
LeftArm  -6.21694 -20.4156 -61.7175
LeftForeArm  -9.58687 -73.6935 -47.9609
LeftHand  -0.647137 2.41727 25.0563
RightShoulder  0.574128 -0.40262 11.4464
RightArm  3.20429 -8.05433 61.8067
RightForeArm  138.285 71.9857 145.537
RightHand  -0.936285 3.52631 -12.4008
LeftUpLeg  -6.73321 0.511301 7.74905
LeftLeg  35.6016 5.13291 4.31186
LeftFoot  -25.7238 -1.65434 -14.2703
LeftToes  3.40148e-010 1.80944e-010 1.01921e-010
205
root  -6.60443 37.3702 12.019 -177.456 66.322 -176.661
RightUpLeg  -26.1657 -1.92901 -6.13505
RightLeg  24.4329 -1.84329 -1.13517
RightFoot  3.25719 -1.89171 14.7752
RightToes  -1.39699e-009 0 -3.6325e-017
Spine  15.0517 -1.54363 -13.197
Spine1  25.1688 -4.61475 1.64534
HEad  -17.2589 28.3785 -7.76419
LeftShoulder1  1.81557 -4.96299 -14.5698
LeftArm  -6.23952 -20.3569 -61.9266
LeftForeArm  -9.72127 -73.6548 -47.8015
LeftHand  -0.650458 2.37513 24.8368
RightShoulder  0.562586 -0.532364 11.9194
RightArm  3.39053 -7.91728 61.4484
RightForeArm  138.166 71.8768 145.732
RightHand  -0.924777 3.41492 -12.3988
LeftUpLeg  -6.55615 0.647647 7.82477
LeftLeg  35.695 5.23795 4.40597
LeftFoot  -25.8095 -1.67386 -14.3414
LeftToes  3.40148e-010 1.80944e-010 1.01921e-010
206
root  -6.61498 37.3664 12.0192 -177.538 66.6512 -176.753
RightUpLeg  -26.2523 -1.68018 -6.16233
RightLeg  24.4183 -1.7792 -1.10275
RightFoot  3.30467 -1.8885 14.7464
RightToes  -1.39699e-009 0 -3.6325e-017
Spine  14.9383 -1.54974 -13.2534
Spine1  25.3203 -4.59962 1.5938
HEad  -19.0158 31.1751 -9.25539
LeftShoulder1  1.85363 -5.1512 -14.5399
LeftArm  -6.29116 -20.2854 -61.8405
LeftForeArm  -9.90662 -73.6001 -47.5784
LeftHand  -0.659171 2.34356 24.9097
RightShoulder  0.555453 -0.597504 12.117
RightArm  3.41374 -7.85415 61.305
RightForeArm  137.98 71.8145 145.824
RightHand  -0.891448 3.33786 -12.0651
LeftUpLeg  -6.49362 0.875345 7.75892
LeftLeg  35.6969 5.31448 4.46479
LeftFoot  -25.8204 -1.68035 -14.3815
LeftToes  3.40148e-010 1.80944e-010 1.01921e-010
207
root  -6.62688 37.3623 12.0203 -177.832 67.0167 -177.277
RightUpLeg  -26.5891 -1.42571 -6.36718
RightLeg  24.4719 -1.69701 -1.06415
RightFoot  3.33187 -1.88693 14.7452
RightToes  -1.39699e-009 0 -3.6325e-017
Spine  14.6475 -1.49138 -13.6739
Spine1  25.4587 -4.71974 1.96137
HEad  -21.1615 34.4777 -11.1429
LeftShoulder1  1.90116 -5.23687 -14.9077
LeftArm  -6.2618 -20.3255 -61.485
LeftForeArm  -10.2689 -73.5582 -47.4367
LeftHand  -0.639607 2.45201 25.0557
RightShoulder  0.555393 -0.53214 11.6891
RightArm  3.29658 -7.96702 61.6262
RightForeArm  137.91 71.8026 145.837
RightHand  -0.879554 3.34638 -11.8971
LeftUpLeg  -6.61043 1.15229 7.49738
LeftLeg  35.6545 5.42206 4.54031
LeftFoot  -25.7731 -1.67925 -14.4179
LeftToes  3.40148e-010 1.80944e-010 1.01921e-010
208
root  -6.63872 37.3568 12.0278 -177.989 67.3522 -177.587
RightUpLeg  -26.8438 -1.20041 -6.46496
RightLeg  24.4998 -1.61603 -1.02499
RightFoot  3.35987 -1.88224 14.6971
RightToes  -1.39699e-009 0 -3.6325e-017
Spine  14.5976 -1.40522 -14.0554
Spine1  25.3931 -4.88921 2.47365
HEad  -23.3451 37.6556 -13.0454
LeftShoulder1  1.92649 -5.13802 -15.4995
LeftArm  -6.11621 -20.4941 -61.0669
LeftForeArm  -10.6168 -73.5356 -47.3788
LeftHand  -0.604932 2.59816 24.9304
RightShoulder  0.550633 -0.452541 11.1305
RightArm  3.23032 -8.16793 61.9732
RightForeArm  138.049 71.7788 145.904
RightHand  -0.888204 3.37994 -11.9673
LeftUpLeg  -6.69437 1.42175 7.3543
LeftLeg  35.6563 5.47861 4.58358
LeftFoot  -25.7534 -1.68073 -14.4481
LeftToes  3.40148e-010 1.80944e-010 1.01921e-010
209
root  -6.65106 37.3474 12.0433 -177.936 67.6146 -177.496
RightUpLeg  -26.905 -1.04294 -6.38165
RightLeg  24.5095 -1.53322 -0.984087
RightFoot  3.37164 -1.87202 14.6073
RightToes  -1.39699e-009 0 -3.6325e-017
Spine  14.863 -1.34558 -14.0867
Spine1  25.12 -4.93565 2.67121
HEad  -25.2787 40.2557 -14.5703
LeftShoulder1  1.94427 -5.1108 -15.8015
LeftArm  -6.05578 -20.6018 -60.7987
LeftForeArm  -10.6113 -73.5277 -47.3473
LeftHand  -0.587187 2.64328 24.5989
RightShoulder  0.546071 -0.480495 11.0756
RightArm  3.28116 -8.30693 61.9078
RightForeArm  138.406 71.7232 146.065
RightHand  -0.876765 3.39159 -11.802
LeftUpLeg  -6.67185 1.66682 7.42048
LeftLeg  35.7487 5.45159 4.57722
LeftFoot  -25.7898 -1.68737 -14.4651
LeftToes  3.40148e-010 1.80944e-010 1.01921e-010
210
root  -6.66604 37.3285 12.0609 -178.015 67.8492 -177.575
RightUpLeg  -27.0569 -0.98628 -6.36055
RightLeg  24.643 -1.37803 -0.910992
RightFoot  3.31315 -1.86136 14.581
RightToes  -1.39699e-009 0 -3.6325e-017
Spine  15.0235 -1.34157 -13.9972
Spine1  24.917 -4.85731 2.50748
HEad  -26.9973 42.2199 -15.7794
LeftShoulder1  1.95994 -5.26327 -15.5692
LeftArm  -6.23092 -20.5577 -60.7781
LeftForeArm  -10.339 -73.5182 -47.2842
LeftHand  -0.594915 2.58396 24.3994
RightShoulder  0.545933 -0.543856 11.3633
RightArm  3.32755 -8.32662 61.6698
RightForeArm  138.785 71.7002 146.166
RightHand  -0.858198 3.41915 -11.5252
LeftUpLeg  -6.71825 1.88421 7.41364
LeftLeg  35.9058 5.44378 4.59556
LeftFoot  -25.8363 -1.6955 -14.4839
LeftToes  3.40148e-010 1.80944e-010 1.01921e-010
211
root  -6.68185 37.3001 12.0774 -178.251 68.0836 -177.9
RightUpLeg  -27.3546 -0.994085 -6.43605
RightLeg  24.9068 -1.16054 -0.809392
RightFoot  3.19825 -1.85518 14.6424
RightToes  -1.39699e-009 0 -3.6325e-017
Spine  14.9671 -1.37526 -14.0745
Spine1  24.9267 -4.84058 2.37766
HEad  -28.6945 43.6834 -17.0742
LeftShoulder1  1.93948 -5.30208 -15.2062
LeftArm  -6.50786 -20.5323 -60.8896
LeftForeArm  -10.1962 -73.512 -47.2228
LeftHand  -0.620415 2.47291 24.4809
RightShoulder  0.554169 -0.493956 11.3363
RightArm  3.30232 -8.24057 61.7521
RightForeArm  138.886 71.7649 146.058
RightHand  -0.886146 3.51821 -11.7622
LeftUpLeg  -6.86633 2.04086 7.28301
LeftLeg  36.1176 5.50246 4.67396
LeftFoot  -25.8901 -1.70851 -14.5332
LeftToes  3.40148e-010 1.80944e-010 1.01921e-010
212
root  -6.69321 37.2671 12.0997 -178.186 68.2886 -177.752
RightUpLeg  -27.4786 -0.93532 -6.32139
RightLeg  25.147 -1.0252 -0.746795
RightFoot  3.10229 -1.84865 14.6838
RightToes  -1.39699e-009 0 -3.6325e-017
Spine  15.1127 -1.40038 -14.161
Spine1  24.9163 -4.94961 2.48158
HEad  -30.3042 44.7266 -18.4959
LeftShoulder1  1.8902 -5.08481 -15.1891
LeftArm  -6.7273 -20.6352 -60.8358
LeftForeArm  -10.2412 -73.5325 -47.3192
LeftHand  -0.647198 2.37486 24.7114
RightShoulder  0.566978 -0.354898 10.8738
RightArm  3.29073 -8.10616 62.1214
RightForeArm  138.673 71.8455 145.871
RightHand  -0.941179 3.64955 -12.3028
LeftUpLeg  -6.90986 2.08472 7.35766
LeftLeg  36.4299 5.56161 4.76992
LeftFoot  -26.0075 -1.73837 -14.6508
LeftToes  3.40148e-010 1.80944e-010 1.01921e-010
